<?xml version="1.0" encoding="utf-8"?>
<!-- Generator: Adobe Illustrator 19.1.0, SVG Export Plug-In . SVG Version: 6.00 Build 0)  -->
<svg version="1.1" id="Layer_3" xmlns="http://www.w3.org/2000/svg" xmlns:xlink="http://www.w3.org/1999/xlink" x="0px" y="0px"
	 width="240px" height="500px" viewBox="-185 147 240 500" style="enable-background:new -185 147 240 500;" xml:space="preserve">
<style type="text/css">
	.st0{fill:#44B449;}
	.st1{fill:#C0C0C0;}
	.st2{fill:#FE7A16;}
	.st3{fill:#818185;}
	.st4{fill:#B8B8B8;}
	.st5{fill:#FFD83D;}
	.st6{fill:#EAC328;}
	.st7{fill:#CC9966;}
	.st8{fill:#C5C5C5;}
	.st9{fill:#FFCC00;}
	.st10{fill:#9E9E9E;}
	.st11{fill:#FFFFFF;}
	.st12{fill:#CCCCCC;}
	.st13{fill:#D35F5F;}
	.st14{fill:#F89393;}
	.st15{fill:#FE6502;}
	.st16{fill:#7A7A7A;}
	.st17{fill:#C03433;}
	.st18{fill:#BCBBBB;}
	.st19{fill:#222426;}
	.st20{fill:#F48024;}
</style>
<g>
	<polygon class="st0" points="-137,428.5 -137,436.1 -128.5,443.7 -112,428.9 -112,420.7 -128.5,435.6 	"/>
</g>
<g>
	<polygon class="st0" points="-162.6,471.7 -162.6,475.2 -158.5,478.8 -151.6,472.6 -151.6,468.8 -158.5,475 	"/>
</g>
<g>
	<polygon class="st1" points="-177,428.5 -177,436.1 -168.4,443.7 -152,428.9 -152,420.7 -168.4,435.6 	"/>
</g>
<polygon class="st2" points="-140,338.7 -111,338.7 -125.4,323.7 "/>
<polygon class="st3" points="-180,338.7 -151,338.7 -165.5,323.7 "/>
<polygon class="st2" points="-125.4,390.7 -111,375.7 -140,375.7 "/>
<polygon class="st2" points="-178.5,470 -185,477 -172,477 "/>
<polygon class="st3" points="-177.8,534.2 -184.8,527.7 -184.8,540.7 "/>
<polygon class="st3" points="-130.9,621.3 -137.9,614.9 -137.9,627.9 "/>
<polygon class="st3" points="-178.5,621.4 -171.5,627.9 -171.5,614.9 "/>
<polygon class="st3" points="-158.2,537.7 -151.8,530.7 -164.8,530.7 "/>
<polygon class="st4" points="-178.5,489 -185,496 -172,496 "/>
<polygon class="st3" points="-165.5,390.7 -151,375.7 -180,375.7 "/>
<g>
	<polygon class="st5" points="-125.4,285.5 -132.1,290.4 -129.7,282.3 -136.3,277.5 -128,277.5 -125.4,269.4 -122.8,277.5 
		-114.5,277.5 -121.1,282.3 -118.7,290.4 	"/>
	<path class="st6" d="M-125.4,271.1l2,6.1l0.2,0.7h0.7h6.3l-5.3,3.8l-0.6,0.4l0.2,0.7l2,6.1l-5.3-3.8l-0.6-0.4l-0.6,0.4l-5.3,3.8
		l2-6.1l0.2-0.7l-0.6-0.4l-5.3-3.8h6.3h0.7l0.2-0.7L-125.4,271.1 M-125.4,267.7l-3,9.1h-9.6l7.7,5.7l-3,9.1l7.7-5.7l7.7,5.7l-3-9.1
		l7.7-5.7h-9.6L-125.4,267.7L-125.4,267.7z"/>
</g>
<g>
	<polygon class="st1" points="-165.5,267.7 -162.6,276.9 -153,276.9 -160.7,282.5 -157.7,291.7 -165.5,286 -173.3,291.7 
		-170.3,282.5 -178,276.9 -168.4,276.9 	"/>
</g>
<circle class="st7" cx="-120" cy="552.7" r="3"/>
<circle class="st8" cx="-100" cy="552.7" r="3"/>
<circle class="st9" cx="-80" cy="552.7" r="3"/>
<rect x="-137.8" y="514.7" class="st10" width="2" height="2"/>
<rect x="-134.8" y="517.7" class="st10" width="2" height="2"/>
<rect x="-128.8" y="517.7" class="st10" width="2" height="2"/>
<rect x="-122.8" y="517.7" class="st10" width="2" height="2"/>
<rect x="-116.8" y="517.7" class="st10" width="2" height="2"/>
<rect x="-131.7" y="514.7" class="st10" width="2" height="2"/>
<rect x="-125.7" y="514.7" class="st10" width="2" height="2"/>
<rect x="-119.7" y="514.7" class="st10" width="2" height="2"/>
<rect x="-113.6" y="514.7" class="st10" width="2" height="2"/>
<g>
	<path class="st8" d="M-184.8,547.7v31h3.4c0.3-5.5,3.7-10.1,8.3-11.8v-1.2c-1.8-1.2-3-3.3-3-5.6c0-3.7,3-6.7,6.8-6.7s6.8,3,6.8,6.7
		c0,2.3-1.2,4.4-3,5.6v1.2c4.6,1.7,8,6.3,8.3,11.8h3.4v-31H-184.8z"/>
	<path class="st11" d="M-181.3,578.7h24.3c-0.3-5.5-3.7-10.1-8.3-11.8v-1.2c1.8-1.2,3-3.3,3-5.6c0-3.7-3-6.7-6.8-6.7s-6.8,3-6.8,6.7
		c0,2.3,1.2,4.4,3,5.6v1.2C-177.5,568.6-181,573.2-181.3,578.7z"/>
</g>
<g>
	<rect x="-124.7" y="487.7" class="st4" width="1.9" height="14"/>
	<rect x="-121.8" y="488.7" class="st12" width="10.1" height="8"/>
</g>
<g>
	<rect x="-124.7" y="467.8" class="st13" width="1.9" height="14"/>
	<rect x="-121.8" y="468.8" class="st14" width="10.1" height="8"/>
</g>
<g>
	<rect x="-104.7" y="467.8" class="st15" width="14" height="14"/>
	<path class="st11" d="M-101.5,477.2c-0.8,0-1.4,0.6-1.4,1.4s0.6,1.4,1.4,1.4s1.4-0.6,1.4-1.4C-100.1,477.9-100.7,477.2-101.5,477.2
		z M-102.9,473.2v2c1.3,0,2.5,0.5,3.4,1.4s1.4,2.1,1.4,3.4h2C-96,476.2-99.1,473.2-102.9,473.2z M-102.9,469.6v2
		c4.6,0,8.4,3.8,8.4,8.4h2C-92.5,474.3-97.2,469.6-102.9,469.6z"/>
</g>
<g>
	<polygon class="st16" points="-162.4,494.8 -163.1,498 -159.9,497.3 	"/>
	
		<rect x="-160.3" y="491.1" transform="matrix(0.7071 0.7071 -0.7071 0.7071 302.6172 256.6822)" class="st16" width="3.5" height="5.1"/>
	<path class="st16" d="M-155.9,489c-0.4,0-0.8,0.1-1.1,0.4l-0.7,0.7l2.5,2.5l0.7-0.7c0.2-0.3,0.4-0.7,0.4-1.1
		C-154.1,489.8-154.9,489-155.9,489z"/>
</g>
<g>
	<circle class="st17" cx="-78" cy="599.5" r="6.5"/>
	<path class="st11" d="M-74.8,601.4L-74.8,601.4l-1.9-1.9l1.9-1.9l0,0c0,0,0,0,0-0.1c0-0.1,0-0.2,0-0.2l-0.9-0.9
		c-0.1-0.1-0.1-0.1-0.2,0H-76l0,0l-1.9,1.9l-1.9-1.9l0,0c0,0,0,0-0.1,0s-0.2,0-0.2,0l-0.9,0.9c-0.1,0.1-0.1,0.1,0,0.2v0.1l0,0
		l1.9,1.9l-1.9,1.9l0,0c0,0,0,0,0,0.1c0,0.1,0,0.2,0,0.2l0.9,0.9c0.1,0.1,0.1,0.1,0.2,0h0.1l0,0l1.9-1.9l1.9,1.9l0,0c0,0,0,0,0.1,0
		s0.2,0,0.2,0l0.9-0.9C-74.8,601.7-74.8,601.6-74.8,601.4C-74.8,601.5-74.8,601.5-74.8,601.4z"/>
</g>
<g>
	<circle class="st17" cx="-137.8" cy="494.6" r="6.5"/>
	<path class="st11" d="M-134.6,496.5L-134.6,496.5l-1.9-1.9l1.9-1.9l0,0c0,0,0,0,0-0.1s0-0.2,0-0.2l-0.9-0.9c-0.1-0.1-0.1-0.1-0.2,0
		h-0.1l0,0l-1.9,1.9l-1.9-1.9l0,0c0,0,0,0-0.1,0s-0.2,0-0.2,0l-0.9,0.9c-0.1,0.1-0.1,0.1,0,0.2v0.1l0,0l1.9,1.9l-1.9,1.9l0,0
		c0,0,0,0,0,0.1s0,0.2,0,0.2l0.9,0.9c0.1,0.1,0.1,0.1,0.2,0h0.1l0,0l1.9-1.9l1.9,1.9l0,0c0,0,0,0,0.1,0s0.2,0,0.2,0l0.9-0.9
		C-134.6,496.7-134.6,496.6-134.6,496.5C-134.6,496.6-134.6,496.5-134.6,496.5z"/>
</g>
<g>
	<circle class="st12" cx="-137.8" cy="473.8" r="6.5"/>
	<path class="st11" d="M-134.6,475.8L-134.6,475.8l-1.9-1.9l1.9-1.9l0,0c0,0,0,0,0-0.1s0-0.2,0-0.2l-0.9-0.9c-0.1-0.1-0.1-0.1-0.2,0
		h-0.1l0,0l-2,1.8l-1.9-1.9l0,0c0,0,0,0-0.1,0s-0.2,0-0.2,0l-0.9,0.9c-0.1,0.1-0.1,0.1,0,0.2v0.1l0,0l1.9,1.9l-1.9,1.9l0,0
		c0,0,0,0,0,0.1s0,0.2,0,0.2l0.9,0.9c0.1,0.1,0.1,0.1,0.2,0h0.1l0,0l1.9-1.9l1.9,1.9l0,0c0,0,0,0,0.1,0s0.2,0,0.2,0l0.9-0.9
		C-134.6,476-134.6,475.9-134.6,475.8L-134.6,475.8z"/>
</g>
<path class="st18" d="M-143.7,194.3h-3.3V191h-1.5v8.1h1.5v-3.5h3.3v3.6h1.6V191h-1.6V194.3z M-137.8,190.9c-0.8,0-1.3,0.1-1.9,0.4
	l-0.1,0.1c-0.3,0.2-0.5,0.3-0.9,0.8l-0.1,0.2l1.2,1l0.1-0.2c0.2-0.3,0.4-0.4,0.6-0.5c0.3-0.1,0.7-0.2,1.1-0.2c1.3,0,1.8,0.4,1.8,1.4
	v0.5h-2.1c-1.8,0-2.9,0.9-2.9,2.5c0,1.6,1.1,2.5,2.9,2.5c0.5,0,1-0.1,1.5-0.3c0.2-0.1,0.3-0.2,0.5-0.3v0.6h1.7v-5.7
	C-134.4,191.8-135.5,190.9-137.8,190.9z M-136.1,196.1c0,1.2-0.5,1.7-1.8,1.7c-1.4,0-1.7-0.4-1.7-1.1c0-0.5,0.2-1.2,1.6-1.2h1.9
	V196.1z M-126.7,191c-0.6,0-1,0.1-1.4,0.3c-0.2,0.1-0.3,0.2-0.5,0.3V191h-1.6v11.6h1.6v-4.1c0,0,0,0,0.1,0.1
	c0.2,0.2,0.3,0.3,0.6,0.4l0.2,0.1c0.4,0.1,0.7,0.2,1.1,0.2c2.1,0,3-1.2,3-4C-123.5,192.4-124.6,191-126.7,191z M-126.7,197.8
	c-1.1,0-1.8-0.5-1.8-2.7c0-2.4,0.9-2.7,1.7-2.7c1.1,0,1.8,0.5,1.8,2.7C-125,197.5-125.8,197.8-126.7,197.8z M-119.5,196.6l-2-5.8
	h-1.6l2.9,7.7l-0.6,1.4c-0.3,0.7-0.5,0.8-1.1,0.8h-0.6v1.5h0.7c1,0,1.8-0.6,2.2-1.6l3.6-9.9h-1.6L-119.5,196.6z M-110.2,197
	c-0.2,0.1-0.3,0.3-0.4,0.4c-0.2,0.2-0.3,0.2-0.5,0.3s-0.4,0.1-0.7,0.1c-1.4,0-2.1-0.9-2.1-2.7c0-1.2,0.4-2.7,2.1-2.7
	c0.2,0,0.5,0,0.7,0.1c0.2,0.1,0.4,0.2,0.6,0.5l0.1,0.2l1.2-1l-0.1-0.2c-0.5-0.6-0.8-0.8-1.3-1c-0.4-0.1-0.9-0.3-1.4-0.3
	c-2.2,0-3.6,1.6-3.6,4.2c0,2.6,1.4,4.2,3.6,4.2c0.5,0,1-0.1,1.3-0.2c0.4-0.1,0.6-0.3,1-0.5c0.1-0.1,0.3-0.2,0.4-0.3l0.2-0.2l-1.2-1
	L-110.2,197z M-103,197c-0.2,0.1-0.3,0.3-0.4,0.4c-0.2,0.2-0.3,0.2-0.5,0.3s-0.4,0.1-0.7,0.1c-1.4,0-2.1-0.9-2.1-2.7
	c0-1.2,0.4-2.7,2.1-2.7c0.2,0,0.5,0,0.7,0.1c0.2,0.1,0.4,0.2,0.7,0.6l0.1,0.2l1.2-1l-0.1-0.2c-0.5-0.6-0.8-0.8-1.2-1l0,0
	c-0.2-0.1-0.4-0.1-0.6-0.2c-0.2-0.1-0.4-0.1-0.7-0.2h-0.1c-2.2,0-3.6,1.6-3.6,4.2c0,2.6,1.4,4.2,3.6,4.2c0.5,0,1-0.1,1.4-0.2
	c0.3-0.1,0.5-0.2,0.8-0.5c0.2-0.1,0.3-0.2,0.6-0.4l0.2-0.2l-1.2-1L-103,197z M-93.9,191h-2l-3.1,3.3V191h-1.6v8.2h1.6v-3.7l3.3,3.7
	h2l-4-4.3L-93.9,191z M-90.6,191c-1,0-1.8,0.3-2.4,0.9c-0.7,0.7-1,1.6-1,3.2c0,1.6,0.3,2.5,1,3.2c0.6,0.6,1.4,0.9,2.4,0.9
	s1.8-0.3,2.4-0.9c0.7-0.7,1-1.6,1-3.2c0-1.6-0.3-2.5-1-3.2C-88.9,191.3-89.8,191-90.6,191z M-89.3,197.2c-0.3,0.3-0.8,0.5-1.3,0.5
	s-0.9-0.2-1.3-0.5c-0.4-0.4-0.5-0.9-0.5-2.2c0-1.2,0.1-1.8,0.5-2.2c0.3-0.3,0.7-0.4,1.3-0.5c0.5,0,0.9,0.2,1.2,0.5
	c0.4,0.4,0.5,1,0.5,2.2C-88.8,196.2-88.9,196.8-89.3,197.2z M-79.5,191l-2.5,4.9l-2.5-4.9h-1.4v8.2h1.5v-4.9l1.9,3.6h1.1l1.8-3.5
	v4.8h1.6V191H-79.5z"/>
<path class="st19" d="M-142.2,179.1l-2.2-0.2c-1.7-0.1-2.3-0.8-2.3-2c0-1.4,1-2.2,3-2.2c1.4,0,2.6,0.3,3.6,1.1l1.3-1.3
	c-1.2-1-2.9-1.4-4.8-1.4c-2.9,0-4.9,1.5-4.9,3.9c0,2.2,1.4,3.4,4,3.6l2.2,0.2c1.6,0.1,2.2,0.8,2.2,2c0,1.6-1.4,2.4-3.6,2.4
	c-1.7,0-3.1-0.4-4.2-1.6l-1.3,1.3c1.5,1.4,3.2,1.9,5.5,1.9c3.2,0,5.5-1.5,5.5-4.1C-138.2,180.2-139.8,179.3-142.2,179.1z
	 M-125.4,173.1c-2.2,0-3.5,0.4-4.7,1.9l1.3,1.3c0.8-1.1,1.7-1.5,3.4-1.5c2.5,0,3.4,1,3.4,2.9v1.3h-4c-3,0-4.6,1.5-4.6,3.9
	c0,1.1,0.4,2.1,1,2.7c0.8,0.9,1.9,1.2,3.8,1.2c1.8,0,2.8-0.4,3.9-1.4v1.3h2v-9.1C-120,174.6-121.8,173.1-125.4,173.1z M-121.9,181.9
	c0,1.1-0.2,1.9-0.7,2.3c-0.8,0.8-1.9,0.9-3,0.9c-2.1,0-3.1-0.7-3.1-2.3c0-1.6,1-2.4,3-2.4h3.8C-121.9,180.4-121.9,181.9-121.9,181.9
	z M-112.3,174.8c1.3,0,2.1,0.4,3.1,1.5l1.3-1.3c-1.4-1.5-2.5-2-4.4-2c-3.4,0-5.9,2.3-5.9,6.9c0,4.6,2.6,6.9,5.9,6.9
	c1.9,0,3-0.5,4.4-2l-1.3-1.3c-1,1.1-1.8,1.5-3.1,1.5c-1.3,0-2.4-0.5-3.1-1.5c-0.6-0.9-0.9-1.9-0.9-3.6s0.2-2.7,0.9-3.6
	C-114.7,175.3-113.6,174.8-112.3,174.8z M-95.5,173.2h-2.4l-6.1,5.9v-11.9h-2v19.4h2v-4.9l2.4-2.4l4.5,7.3h2.4l-5.6-8.7L-95.5,173.2
	z M-86.2,172.5c-2.1,0-3.5,0.8-4.3,1.7c-1.3,1.3-1.6,2.9-1.6,5.4s0.3,4.1,1.6,5.4c0.9,0.9,2.3,1.7,4.3,1.7c2.1,0,3.5-0.8,4.3-1.7
	c1.3-1.3,1.6-2.9,1.6-5.4s-0.3-4.1-1.6-5.4C-82.7,173.3-84.2,172.5-86.2,172.5z M-84.6,183.1c-0.4,0.4-0.9,0.6-1.6,0.6
	s-1.2-0.2-1.6-0.6c-0.7-0.7-0.8-2-0.8-3.4c0-1.4,0.1-2.7,0.8-3.4c0.4-0.4,0.9-0.6,1.6-0.6s1.2,0.2,1.6,0.6c0.7,0.7,0.8,1.9,0.8,3.4
	C-83.8,181.1-83.9,182.3-84.6,183.1z M-71,172.7l-2.8,8.6l-2.8-8.6h-3.7l5.2,14h2.7l5.1-14H-71z M-61.4,172.5
	c-3.6,0-6.1,2.6-6.1,7.1c0,5.7,3.2,7.2,6.5,7.2c2.5,0,3.9-0.8,5.3-2.2l-2.1-2.1c-0.9,0.9-1.6,1.3-3.2,1.3c-2,0-3.1-1.3-3.1-3.1h8.8
	v-1.6C-55.3,175.3-57.5,172.5-61.4,172.5z M-64,178.4c0-0.6,0.1-1,0.3-1.5c0.4-0.8,1.2-1.4,2.3-1.4c1.2,0,2,0.6,2.3,1.4
	c0.2,0.5,0.3,0.9,0.3,1.5H-64z M-50.1,174v-1.3h-3.4v14h3.5v-8.4c0-1.8,1.2-2.6,2.3-2.6c0.9,0,1.3,0.3,1.8,0.8l2.6-2.6
	c-1-1-1.9-1.3-3.3-1.3C-48.1,172.5-49.5,173.2-50.1,174z M-42.2,171.2v15.4h3.5v-11h2.6v-2.7h-2.6v-1.5c0-0.8,0.4-1.3,1.2-1.3h1.3
	v-3h-2C-41,167.2-42.2,169.2-42.2,171.2z M-21.8,172.5c-2.1,0-3.5,0.8-4.3,1.7c-1.3,1.3-1.6,2.9-1.6,5.4s0.3,4.1,1.6,5.4
	c0.9,0.9,2.3,1.7,4.3,1.7c2.1,0,3.5-0.8,4.3-1.7c1.3-1.3,1.6-2.9,1.6-5.4s-0.3-4.1-1.6-5.4C-18.3,173.3-19.7,172.5-21.8,172.5z
	 M-20.2,183.1c-0.4,0.4-0.9,0.6-1.6,0.6s-1.2-0.2-1.6-0.6c-0.7-0.7-0.8-2-0.8-3.4c0-1.4,0.1-2.7,0.8-3.4c0.4-0.4,0.9-0.6,1.6-0.6
	s1.2,0.2,1.6,0.6c0.7,0.7,0.8,1.9,0.8,3.4C-19.4,181.1-19.5,182.3-20.2,183.1z M0.6,172.7l-2.3,8.6l-2.8-8.6H-7l-2.8,8.6l-2.4-8.6
	h-3.7l4.3,14h2.9l2.9-8.8l2.9,8.8H0l4.3-14H0.6z M-31,182.4v-15.2h-3.5v15.4c0,2,1.2,4,4.1,4h2v-3h-1.3
	C-30.7,183.7-31,183.3-31,182.4z M-132.8,175.3l1.8-1.8h-3.7v-4.4h-2V183c0,2,1.1,3.6,3.4,3.6h1.4v-1.7h-1c-1.3,0-1.8-0.7-1.8-2
	v-7.7L-132.8,175.3C-132.8,175.2-132.8,175.3-132.8,175.3z"/>
<polygon class="st18" points="-158.5,190 -158.5,180 -155.2,180 -155.2,193.3 -185,193.3 -185,180 -181.7,180 -181.7,190 "/>
<path class="st20" d="M-178,179.1l16.2,3.4l0.7-3.2l-16.2-3.4L-178,179.1z M-175.9,171.3l15,7l1.4-3l-15-7L-175.9,171.3z
	 M-171.7,163.9l12.7,10.6l2.1-2.5l-12.7-10.6L-171.7,163.9z M-163.5,156.1l-2.7,2l9.9,13.3l2.7-2L-163.5,156.1z M-178.4,186.6h16.6
	v-3.3h-16.6V186.6z"/>
</svg>
